<?xml version="1.0" encoding="UTF-8"?>
<svg id="a" data-name="Layer 1" xmlns="http://www.w3.org/2000/svg" viewBox="0 0 960 198.01">
  <defs>
    <style>
      .b {
        fill: #d946ef;
      }
    </style>
  </defs>
  <path class="b" d="M17.76,118.32l10.55-50.21c7.34-34.39,24.76-55.94,62.59-55.94h51.13c38.06,0,53.42,21.55,46.09,55.94l-.23,1.15c-.69,3.44-2.75,5.27-6.19,5.27h-20.18c-3.9,0-6.19-1.38-5.73-3.9l.69-3.67c4.36-19.95-1.38-24.3-17.2-24.3h-51.13c-15.82,0-23.39,4.36-27.74,24.3l-11.01,52.5c-4.13,19.72,1.83,24.07,17.2,24.07h51.13c15.59,0,23.62-4.36,27.74-24.07l.92-5.04c.69-3.21,2.98-5.04,6.42-5.04h20.18c3.9,0,5.96,1.6,5.5,4.36l-.92,4.59c-7.11,34.16-22.93,55.71-60.99,55.71h-52.73c-38.06,0-53.19-21.55-46.08-55.71Z"/>
  <path class="b" d="M433.67,45.18h-32.33c-36.68,0-47.23,18.34-53.88,50.21l-.69,3.21h-18.31l.66-3.21c6.65-31.87-4.13-50.21-41.04-50.21h-32.33c-36.68,0-47.23,18.34-53.88,50.21l-5.96,27.74c-6.88,32.79,4.59,50.9,41.27,50.9h59.61c3.44,0,5.73-1.83,6.42-5.04l3.44-16.97c.92-4.13-1.15-6.19-5.04-6.19h-62.36c-13.76,0-17.2-3.67-13.76-19.49l1.15-4.59h115.17l-.3,1.38c-6.88,32.79,4.59,50.9,41.27,50.9h59.61c3.44,0,5.73-1.83,6.42-5.04l3.44-16.97c.92-4.13-1.15-6.19-5.04-6.19h-62.36c-13.76,0-17.2-3.67-13.76-19.49l1.15-4.59h91.71c3.44,0,5.73-1.83,6.42-5.04l4.36-21.32c6.65-31.87-4.13-50.21-41.04-50.21ZM231.45,98.6l1.38-5.96c3.21-15.59,8.02-19.26,22.01-19.26h30.95c13.99,0,17.2,3.67,13.76,19.26l-1.38,5.96h-66.72ZM445.14,92.64l-1.38,5.96h-66.72l1.38-5.96c3.21-15.59,8.02-19.26,22.01-19.26h30.95c13.99,0,17.2,3.67,13.76,19.26Z"/>
  <path class="b" d="M907.37,45.18h-32.33c-36.68,0-47.23,18.34-53.88,50.21l-.69,3.21h-18.31l.66-3.21c6.65-31.87-4.13-50.21-41.04-50.21h-32.33c-36.68,0-47.23,18.34-53.88,50.21l-.69,3.21h-91.04c-3.44,0-5.73,1.83-6.42,5.04l-3.44,16.51c-.92,4.13,1.15,6.19,5.04,6.19h38.75l-1.61,7.34c-3.17,11.76-16.22,9.67-26.81,9.86h-52.96c-15.36,0-21.32-4.36-17.2-24.07l11.01-52.5c4.36-19.95,11.92-24.3,27.74-24.3h52.73c13.99,0,20.18,3.44,18.57,17.65-.46,4.13,1.15,6.42,5.04,6.42h20.41c3.44,0,5.73-1.6,6.19-5.27,4.59-31.18-11.69-49.29-47.69-49.29h-52.73c-37.83,0-55.03,21.55-62.36,55.94l-10.55,50.21c-7.11,34.16,8.25,55.71,46.31,55.71h52.73c38.06,0,54.55-7.34,61.66-41.5l2.32-10.78h19.32l-.3,1.38c-6.88,32.79,4.59,50.9,41.27,50.9h59.61c3.44,0,5.73-1.83,6.42-5.04l3.44-16.97c.92-4.13-1.15-6.19-5.04-6.19h-62.36c-13.76,0-17.2-3.67-13.76-19.49l1.15-4.59h115.17l-.3,1.38c-6.88,32.79,4.59,50.9,41.27,50.9h59.61c3.44,0,5.73-1.83,6.42-5.04l3.44-16.97c.92-4.13-1.15-6.19-5.04-6.19h-62.36c-13.76,0-17.2-3.67-13.76-19.49l1.15-4.59h91.71c3.44,0,5.73-1.83,6.42-5.04l4.36-21.32c6.65-31.87-4.13-50.21-41.04-50.21ZM705.14,98.6l1.38-5.96c3.21-15.59,8.02-19.26,22.01-19.26h30.95c13.99,0,17.2,3.67,13.76,19.26l-1.38,5.96h-66.72ZM918.83,92.64l-1.38,5.96h-66.72l1.38-5.96c3.21-15.59,8.02-19.26,22.01-19.26h30.95c13.99,0,17.2,3.67,13.76,19.26Z"/>
</svg>